<svg xmlns="http://www.w3.org/2000/svg" width="32.485" height="40.606" viewBox="0 0 32.485 40.606">
  <g id="ic_pay_bills" transform="translate(13698.999 10825.304)">
    <path id="iconfinder_iconoteka_receipt_b_s_3507744" d="M34.679,2a6.213,6.213,0,0,0-3.553,1.157,2.03,2.03,0,0,1-2.538,0,6.091,6.091,0,0,0-7.106,0,2.315,2.315,0,0,1-1.239.467,2.152,2.152,0,0,1-1.218-.447,6.022,6.022,0,0,0-7.127-.02,2.03,2.03,0,0,1-2.538,0A6.213,6.213,0,0,0,5.807,2H4V42.607H5.807A6.213,6.213,0,0,0,9.36,41.45a2.03,2.03,0,0,1,2.538,0,6.091,6.091,0,0,0,7.106,0,2.315,2.315,0,0,1,1.239-.467,2.152,2.152,0,0,1,1.218.447,5.96,5.96,0,0,0,7.086.02,2.03,2.03,0,0,1,2.538,0,6.213,6.213,0,0,0,3.553,1.157h1.848V2ZM32.425,37.531a6.091,6.091,0,0,0-6.091.568,2.213,2.213,0,0,1-1.259.447,2.03,2.03,0,0,1-1.218-.447,6.091,6.091,0,0,0-3.614-1.178A6.314,6.314,0,0,0,16.669,38.1a2.03,2.03,0,0,1-2.518,0,6.091,6.091,0,0,0-6.091-.568V7.076a6.091,6.091,0,0,0,2.558.609,6.314,6.314,0,0,0,3.533-1.178,2.213,2.213,0,0,1,1.3-.447,2.03,2.03,0,0,1,1.218.447,6.091,6.091,0,0,0,3.573,1.178,6.314,6.314,0,0,0,3.573-1.178,2.03,2.03,0,0,1,2.518,0,6.314,6.314,0,0,0,3.573,1.178,6.091,6.091,0,0,0,2.518-.609Z" transform="translate(-13702.999 -10827.304)" fill="#2c3e50"/>
    <rect id="Rectangle_19744" data-name="Rectangle 19744" width="19" height="4" transform="translate(-13691.999 -10814)" fill="#ec1b24"/>
    <rect id="Rectangle_19745" data-name="Rectangle 19745" width="19" height="4" transform="translate(-13691.999 -10807)" fill="#ec1b24"/>
    <rect id="Rectangle_19746" data-name="Rectangle 19746" width="9" height="4" transform="translate(-13681.999 -10800)" fill="#ec1b24"/>
  </g>
</svg>
